# 3ds Max Wavefront OBJ Exporter v0.97b - (c)2007 guruware
# File Created: 30.05.2023 19:17:29

mtllib Pencil.mtl

#
# object Pencil
#

v  0.1425 0.0038 -3.3023
v  0.0748 -0.1217 -3.3023
v  -0.0677 -0.1258 -3.3023
v  -0.1425 -0.0044 -3.3023
v  -0.0748 0.1211 -3.3023
v  0.0677 0.1252 -3.3023
v  0.0677 -0.1258 2.6314
v  0.1425 -0.0044 2.6314
v  -0.0748 -0.1217 2.6314
v  -0.1425 0.0038 2.6314
v  -0.0677 0.1252 2.6314
v  0.0748 0.1211 2.6314
v  0.1425 -0.0044 -3.3023
v  0.0677 -0.1258 -3.3023
v  -0.0748 -0.1217 -3.3023
v  -0.1425 0.0038 -3.3023
v  -0.0677 0.1252 -3.3023
v  0.0748 0.1211 -3.3023
v  0.0748 -0.1217 2.6314
v  0.1425 0.0038 2.6314
v  -0.0677 -0.1258 2.6314
v  -0.1425 -0.0044 2.6314
v  -0.0748 0.1211 2.6314
v  0.0677 0.1252 2.6314
v  0.1315 -0.0221 2.6531
v  0.1319 0.0226 2.6526
v  0.0849 0.1041 2.6521
v  0.0478 0.1258 2.6519
v  -0.0473 0.1257 2.6521
v  -0.0848 0.1038 2.6525
v  -0.1313 0.0231 2.6530
v  -0.1309 -0.0224 2.6535
v  -0.0855 -0.1010 2.6538
v  -0.0448 -0.1243 2.6540
v  0.0453 -0.1243 2.6539
v  0.0857 -0.1013 2.6536
v  0.0186 -0.0039 3.2974
v  0.0186 0.0059 3.2974
v  0.0137 0.0144 3.2974
v  0.0052 0.0193 3.2974
v  -0.0046 0.0193 3.2974
v  -0.0131 0.0144 3.2974
v  -0.0180 0.0059 3.2974
v  -0.0180 -0.0039 3.2974
v  -0.0131 -0.0123 3.2974
v  -0.0046 -0.0172 3.2974
v  0.0052 -0.0172 3.2974
v  0.0137 -0.0123 3.2974
v  0.0634 -0.1243 2.6391
v  0.1392 -0.0074 2.6391
v  -0.0758 -0.1172 2.6390
v  -0.1393 0.0070 2.6390
v  -0.0634 0.1241 2.6390
v  0.0759 0.1168 2.6391
v  0.0758 -0.1172 2.6390
v  0.1393 0.0070 2.6390
v  -0.0634 -0.1243 2.6390
v  -0.1392 -0.0074 2.6391
v  -0.0759 0.1168 2.6391
v  0.0634 0.1241 2.6391
v  0.0091 -0.0100 3.3023
v  0.0091 0.0121 3.3023
v  -0.0086 0.0121 3.3023
v  -0.0086 -0.0100 3.3023
# 64 vertices

vn 0.6738 -0.7202 0.1654
vn 0.7071 -0.7071 0.0000
vn 0.9659 -0.2588 0.0000
vn 0.9612 -0.2250 0.1597
vn -0.2854 -0.9435 0.1683
vn -0.2588 -0.9659 0.0000
vn 0.2588 -0.9659 0.0000
vn 0.2853 -0.9437 0.1674
vn -0.9606 -0.2255 0.1627
vn -0.9659 -0.2588 0.0000
vn -0.7071 -0.7071 0.0000
vn -0.6740 -0.7195 0.1673
vn -0.6760 0.7207 0.1535
vn -0.7071 0.7071 -0.0000
vn -0.9659 0.2588 -0.0000
vn -0.9615 0.2235 0.1596
vn 0.2877 0.9458 0.1504
vn 0.2588 0.9659 -0.0000
vn -0.2588 0.9659 -0.0000
vn -0.2877 0.9457 0.1514
vn 0.9622 0.2230 0.1567
vn 0.9659 0.2588 -0.0000
vn 0.7071 0.7071 -0.0000
vn 0.6757 0.7215 0.1514
vn 0.9659 -0.2588 0.0000
vn 0.9659 0.2588 -0.0000
vn 0.9622 0.2230 0.1567
vn 0.9612 -0.2250 0.1597
vn 0.6738 -0.7202 0.1654
vn 0.2853 -0.9437 0.1674
vn 0.2588 -0.9659 0.0000
vn 0.7071 -0.7071 0.0000
vn -0.2854 -0.9435 0.1683
vn -0.6740 -0.7195 0.1673
vn -0.7071 -0.7071 0.0000
vn -0.2588 -0.9659 0.0000
vn -0.9606 -0.2255 0.1627
vn -0.9615 0.2235 0.1596
vn -0.9659 0.2588 -0.0000
vn -0.9659 -0.2588 0.0000
vn -0.6760 0.7207 0.1535
vn -0.2877 0.9457 0.1514
vn -0.2588 0.9659 -0.0000
vn -0.7071 0.7071 -0.0000
vn 0.2877 0.9458 0.1504
vn 0.6757 0.7215 0.1514
vn 0.7071 0.7071 -0.0000
vn 0.2588 0.9659 -0.0000
vn 0.9356 -0.3274 0.1318
vn 0.9390 0.3267 0.1077
vn 0.9504 0.2580 0.1735
vn 0.9504 -0.2578 0.1739
vn 0.9390 0.3267 0.1077
vn 0.7533 0.6500 0.1001
vn 0.6987 0.6940 0.1737
vn 0.9504 0.2580 0.1735
vn 0.7533 0.6500 0.1001
vn 0.1871 0.9780 0.0918
vn 0.2515 0.9522 0.1735
vn 0.6987 0.6940 0.1737
vn 0.1871 0.9780 0.0918
vn -0.1872 0.9778 0.0940
vn -0.2515 0.9522 0.1736
vn 0.2515 0.9522 0.1735
vn -0.1872 0.9778 0.0940
vn -0.7532 0.6485 0.1104
vn -0.6987 0.6940 0.1739
vn -0.2515 0.9522 0.1736
vn -0.7532 0.6485 0.1104
vn -0.9374 0.3273 0.1192
vn -0.9504 0.2581 0.1739
vn -0.6987 0.6940 0.1739
vn -0.9374 0.3273 0.1192
vn -0.9339 -0.3275 0.1433
vn -0.9504 -0.2578 0.1742
vn -0.9504 0.2581 0.1739
vn -0.9339 -0.3275 0.1433
vn -0.7498 -0.6446 0.1491
vn -0.6984 -0.6942 0.1741
vn -0.9504 -0.2578 0.1742
vn -0.7498 -0.6446 0.1491
vn -0.1830 -0.9705 0.1569
vn -0.2520 -0.9519 0.1742
vn -0.6984 -0.6942 0.1741
vn -0.1830 -0.9705 0.1569
vn 0.1831 -0.9707 0.1555
vn 0.2521 -0.9519 0.1741
vn -0.2520 -0.9519 0.1742
vn 0.1831 -0.9707 0.1555
vn 0.7504 -0.6461 0.1397
vn 0.6985 -0.6942 0.1739
vn 0.2521 -0.9519 0.1741
vn 0.7504 -0.6461 0.1397
vn 0.9356 -0.3274 0.1318
vn 0.9504 -0.2578 0.1739
vn 0.6985 -0.6942 0.1739
vn -0.6512 -0.6740 0.3488
vn -0.2569 -0.9002 0.3517
vn -0.1830 -0.9705 0.1569
vn -0.7498 -0.6446 0.1491
vn -0.2569 -0.9002 0.3517
vn 0.2572 -0.9019 0.3469
vn 0.1831 -0.9707 0.1555
vn -0.1830 -0.9705 0.1569
vn 0.2572 -0.9019 0.3469
vn 0.6525 -0.6770 0.3405
vn 0.7504 -0.6461 0.1397
vn 0.1831 -0.9707 0.1555
vn 0.6525 -0.6770 0.3405
vn 0.9202 -0.2295 0.3171
vn 0.9356 -0.3274 0.1318
vn 0.7504 -0.6461 0.1397
vn 0.9202 -0.2295 0.3171
vn 0.9243 0.2265 0.3071
vn 0.9390 0.3267 0.1077
vn 0.9356 -0.3274 0.1318
vn 0.9243 0.2265 0.3071
vn 0.6635 0.6912 0.2864
vn 0.7533 0.6500 0.1001
vn 0.9390 0.3267 0.1077
vn 0.6635 0.6912 0.2864
vn 0.2685 0.9208 0.2831
vn 0.1871 0.9780 0.0918
vn 0.7533 0.6500 0.1001
vn 0.2685 0.9208 0.2831
vn -0.2682 0.9188 0.2895
vn -0.1872 0.9778 0.0940
vn 0.1871 0.9780 0.0918
vn -0.2682 0.9188 0.2895
vn -0.6622 0.6881 0.2966
vn -0.7532 0.6485 0.1104
vn -0.1872 0.9778 0.0940
vn -0.6622 0.6881 0.2966
vn -0.9193 0.2264 0.3219
vn -0.9374 0.3273 0.1192
vn -0.7532 0.6485 0.1104
vn -0.9193 0.2264 0.3219
vn -0.9152 -0.2291 0.3316
vn -0.9339 -0.3275 0.1433
vn -0.9374 0.3273 0.1192
vn -0.9152 -0.2291 0.3316
vn -0.6512 -0.6740 0.3488
vn -0.7498 -0.6446 0.1491
vn -0.9339 -0.3275 0.1433
vn 0.9612 -0.2250 0.1597
vn 0.9202 -0.2295 0.3171
vn 0.6525 -0.6770 0.3405
vn 0.6738 -0.7202 0.1654
vn 0.2853 -0.9437 0.1674
vn 0.2572 -0.9019 0.3469
vn -0.2569 -0.9002 0.3517
vn -0.2854 -0.9435 0.1683
vn -0.6740 -0.7195 0.1673
vn -0.6512 -0.6740 0.3488
vn -0.9152 -0.2291 0.3316
vn -0.9606 -0.2255 0.1627
vn -0.9615 0.2235 0.1596
vn -0.9193 0.2264 0.3219
vn -0.6622 0.6881 0.2966
vn -0.6760 0.7207 0.1535
vn -0.2877 0.9457 0.1514
vn -0.2682 0.9188 0.2895
vn 0.2685 0.9208 0.2831
vn 0.2877 0.9458 0.1504
vn 0.6757 0.7215 0.1514
vn 0.6635 0.6912 0.2864
vn 0.9243 0.2265 0.3071
vn 0.9622 0.2230 0.1567
vn 0.6738 -0.7202 0.1654
vn 0.6525 -0.6770 0.3405
vn 0.2572 -0.9019 0.3469
vn 0.2853 -0.9437 0.1674
vn 0.9622 0.2230 0.1567
vn 0.9243 0.2265 0.3071
vn 0.9202 -0.2295 0.3171
vn 0.9612 -0.2250 0.1597
vn -0.2854 -0.9435 0.1683
vn -0.2569 -0.9002 0.3517
vn -0.6512 -0.6740 0.3488
vn -0.6740 -0.7195 0.1673
vn -0.9606 -0.2255 0.1627
vn -0.9152 -0.2291 0.3316
vn -0.9193 0.2264 0.3219
vn -0.9615 0.2235 0.1596
vn -0.6760 0.7207 0.1535
vn -0.6622 0.6881 0.2966
vn -0.2682 0.9188 0.2895
vn -0.2877 0.9457 0.1514
vn 0.2877 0.9458 0.1504
vn 0.2685 0.9208 0.2831
vn 0.6635 0.6912 0.2864
vn 0.6757 0.7215 0.1514
vn 0.0000 0.0000 -1.0000
vn 0.0000 0.0000 -1.0000
vn 0.0000 0.0000 -1.0000
vn 0.0000 0.0000 -1.0000
vn 0.0000 0.0000 -1.0000
vn 0.0000 0.0000 -1.0000
vn 0.0000 0.0000 -1.0000
vn 0.0000 0.0000 -1.0000
vn 0.0000 0.0000 -1.0000
vn 0.0000 0.0000 -1.0000
vn 0.0000 0.0000 -1.0000
vn 0.0000 0.0000 -1.0000
vn 0.0000 0.0000 -1.0000
vn 0.0000 0.0000 -1.0000
vn 0.0000 0.0000 -1.0000
vn 0.0000 0.0000 -1.0000
vn 0.0000 0.0000 -1.0000
vn 0.0000 0.0000 -1.0000
vn 0.0000 0.0000 -1.0000
vn 0.0000 0.0000 -1.0000
vn 0.0000 0.0000 1.0000
vn 0.0000 0.0000 1.0000
vn 0.0000 0.0000 1.0000
vn 0.0000 0.0000 1.0000
vn 0.0000 0.5609 0.8279
vn 0.0000 0.5609 0.8279
vn 0.0000 0.5609 0.8279
vn 0.0000 0.5609 0.8279
vn -0.0000 -0.5609 0.8279
vn -0.0000 -0.5609 0.8279
vn -0.0000 -0.5609 0.8279
vn -0.0000 -0.5609 0.8279
vn -0.5020 0.5020 0.7042
vn -0.5020 0.5020 0.7042
vn -0.5020 0.5020 0.7042
vn -0.5020 0.5020 0.7042
vn -0.4632 0.0000 0.8863
vn -0.4632 0.0000 0.8863
vn -0.4632 0.0000 0.8863
vn -0.4632 0.0000 0.8863
vn -0.5020 -0.5020 0.7042
vn -0.5020 -0.5020 0.7042
vn -0.5020 -0.5020 0.7042
vn -0.5020 -0.5020 0.7042
vn 0.5020 -0.5020 0.7042
vn 0.5020 -0.5020 0.7042
vn 0.5020 -0.5020 0.7042
vn 0.5020 -0.5020 0.7042
vn 0.4632 -0.0000 0.8863
vn 0.4632 -0.0000 0.8863
vn 0.4632 -0.0000 0.8863
vn 0.4632 -0.0000 0.8863
vn 0.5020 0.5020 0.7042
vn 0.5020 0.5020 0.7042
vn 0.5020 0.5020 0.7042
vn 0.5020 0.5020 0.7042
# 248 vertex normals

vt 0.1404 0.9775 0.0000
vt 0.1840 0.9523 0.0000
vt 0.1840 0.9762 0.0000
vt 0.1611 0.9894 0.0000
vt 0.1833 0.9775 0.0000
vt 0.1626 0.9894 0.0000
vt 0.1397 0.9762 0.0000
vt 0.1098 0.1017 0.0000
vt 0.1101 0.9942 0.0000
vt 0.0898 0.9950 0.0000
vt 0.0898 0.1028 0.0000
vt 0.1305 0.0991 0.0000
vt 0.1317 0.9920 0.0000
vt 0.1113 0.9931 0.0000
vt 0.1833 0.9511 0.0000
vt 0.1397 0.9523 0.0000
vt 0.1626 0.9391 0.0000
vt 0.1404 0.9511 0.0000
vt 0.1611 0.9391 0.0000
vt 0.1106 0.1009 0.0000
vt 0.0258 0.0988 0.0000
vt 0.0257 0.9911 0.0000
vt 0.1330 0.9915 0.0000
vt 0.0057 0.0968 0.0000
vt 0.0467 0.1014 0.0000
vt 0.0467 0.9936 0.0000
vt 0.0267 0.9923 0.0000
vt 0.0267 0.0997 0.0000
vt 0.0676 0.1030 0.0000
vt 0.0677 0.9952 0.0000
vt 0.0476 0.9946 0.0000
vt 0.0475 0.1022 0.0000
vt 0.0888 0.1032 0.0000
vt 0.0888 0.9955 0.0000
vt 0.0687 0.9955 0.0000
vt 0.0686 0.1033 0.0000
vt 0.0922 0.1002 0.0000
vt 0.0855 0.1007 0.0000
vt 0.1835 0.9423 0.0000
vt 0.1851 0.9391 0.0000
vt 0.1868 0.9386 0.0000
vt 0.0780 0.0026 0.0000
vt 0.1894 0.9416 0.0000
vt 0.1900 0.9401 0.0000
vt 0.1905 0.9419 0.0000
vt 0.1854 0.9453 0.0000
vt 0.1868 0.9445 0.0000
vt 0.1889 0.9450 0.0000
vt 0.1838 0.9405 0.0000
vt 0.1846 0.9425 0.0000
vt 0.0804 0.0028 0.0000
vt 0.1885 0.9388 0.0000
vt 0.0714 0.1008 0.0000
vt 0.0755 0.0025 0.0000
vt 0.0650 0.1007 0.0000
vt 0.0728 0.0026 0.0000
vt 0.0509 0.0996 0.0000
vt 0.0702 0.0030 0.0000
vt 0.0444 0.0988 0.0000
vt 0.0677 0.0034 0.0000
vt 0.0307 0.0963 0.0000
vt 0.0653 0.0040 0.0000
vt 0.0241 0.0948 0.0000
vt 0.0631 0.0044 0.0000
vt 0.0114 0.0900 0.0000
vt 0.1839 0.9440 0.0000
vt 0.1871 0.9396 0.0000
vt 0.1901 0.9436 0.0000
vt 0.1872 0.9455 0.0000
vt 0.0615 0.0042 0.0000
vt 0.1260 0.0946 0.0000
vt 0.0868 0.0041 0.0000
vt 0.1128 0.0977 0.0000
vt 0.0848 0.0037 0.0000
vt 0.1059 0.0988 0.0000
vt 0.0826 0.0032 0.0000
vt 0.0072 0.0934 0.0000
vt 0.1295 0.0971 0.0000
vt 0.1108 0.1001 0.0000
vt 0.1089 0.1008 0.0000
vt 0.0901 0.1021 0.0000
vt 0.0881 0.1025 0.0000
vt 0.0692 0.1025 0.0000
vt 0.0672 0.1023 0.0000
vt 0.0483 0.1013 0.0000
vt 0.0464 0.1007 0.0000
vt 0.0276 0.0983 0.0000
vt 0.0257 0.0977 0.0000
vt 0.0055 0.9905 0.0000
vt 0.1316 0.0986 0.0000
vt 0.1326 0.0922 0.0000
vt 0.0883 0.0038 0.0000
vt 0.1315 0.0964 0.0000
# 93 texture coords

g Pencil
usemtl Pencil
s 1
f 19/8/1 2/9/2 13/10/3 8/11/4 
f 21/12/5 3/13/6 14/14/7 7/20/8 
f 22/21/9 4/22/10 15/89/11 9/24/12 
f 23/25/13 5/26/14 16/27/15 10/28/16 
f 24/29/17 6/30/18 17/31/19 11/32/20 
f 20/33/21 1/34/22 18/35/23 12/36/24 
f 13/10/25 1/34/26 20/33/27 8/11/28 
f 19/8/29 7/20/30 14/14/31 2/9/32 
f 21/12/33 9/90/34 15/23/35 3/13/36 
f 22/21/37 10/28/38 16/27/39 4/22/40 
f 23/25/41 11/32/42 17/31/43 5/26/44 
f 24/29/45 12/36/46 18/35/47 6/30/48 
f 25/37/49 26/38/50 38/42/51 37/51/52 
f 26/38/53 27/53/54 39/54/55 38/42/56 
f 27/53/57 28/55/58 40/56/59 39/54/60 
f 28/55/61 29/57/62 41/58/63 40/56/64 
f 29/57/65 30/59/66 42/60/67 41/58/68 
f 30/59/69 31/61/70 43/62/71 42/60/72 
f 31/61/73 32/63/74 44/64/75 43/62/76 
f 32/63/77 33/65/78 45/70/79 44/64/80 
f 33/91/81 34/71/82 46/72/83 45/92/84 
f 34/71/85 35/73/86 47/74/87 46/72/88 
f 35/73/89 36/75/90 48/76/91 47/74/92 
f 36/75/93 25/37/94 37/51/95 48/76/96 
f 51/93/97 57/78/98 34/71/99 33/91/100 
f 57/78/101 49/79/102 35/73/103 34/71/104 
f 49/79/105 55/80/106 36/75/107 35/73/108 
f 55/80/109 50/81/110 25/37/111 36/75/112 
f 50/81/113 56/82/114 26/38/115 25/37/116 
f 56/82/117 54/83/118 27/53/119 26/38/120 
f 54/83/121 60/84/122 28/55/123 27/53/124 
f 60/84/125 53/85/126 29/57/127 28/55/128 
f 53/85/129 59/86/130 30/59/131 29/57/132 
f 59/86/133 52/87/134 31/61/135 30/59/136 
f 52/87/137 58/88/138 32/63/139 31/61/140 
f 58/88/141 51/77/142 33/65/143 32/63/144 
f 8/11/145 50/81/146 55/80/147 19/8/148 
f 7/20/149 49/79/150 57/78/151 21/12/152 
f 9/24/153 51/77/154 58/88/155 22/21/156 
f 10/28/157 52/87/158 59/86/159 23/25/160 
f 11/32/161 53/85/162 60/84/163 24/29/164 
f 12/36/165 54/83/166 56/82/167 20/33/168 
f 19/8/169 55/80/170 49/79/171 7/20/172 
f 20/33/173 56/82/174 50/81/175 8/11/176 
f 21/12/177 57/78/178 51/93/179 9/90/180 
f 22/21/181 58/88/182 52/87/183 10/28/184 
f 23/25/185 59/86/186 53/85/187 11/32/188 
f 24/29/189 60/84/190 54/83/191 12/36/192 
s off
f 2/1/193 17/2/194 6/3/195 13/4/196 
f 6/3/197 18/5/198 1/6/199 13/4/200 
f 2/1/201 14/7/202 5/15/203 17/2/204 
f 14/7/205 3/16/206 16/17/207 5/15/208 
f 3/16/209 15/18/210 4/19/211 16/17/212 
f 61/50/213 62/67/214 63/43/215 64/47/216 
f 62/67/217 40/52/218 41/44/219 63/43/220 
f 64/47/221 46/46/222 47/66/223 61/50/224 
f 63/43/225 41/44/226 42/45/227 43/68/228 
f 64/47/229 63/43/230 43/68/231 44/48/232 
f 46/46/233 64/47/234 44/48/235 45/69/236 
f 48/39/237 37/49/238 61/50/239 47/66/240 
f 62/67/241 61/50/242 37/49/243 38/40/244 
f 38/40/245 39/41/246 40/52/247 62/67/248 
# 62 polygons

